/* XPM */
static char *_17e83b780f2428ce64fa9148a75d5c8[] = {
/* columns rows colors chars-per-pixel */
"32 32 224 2 ",
"   c black",
".  c #010100",
"X  c #000001",
"o  c #010101",
"O  c #020100",
"+  c #020200",
"@  c #030200",
"#  c #030300",
"$  c #000002",
"%  c #000003",
"&  c #010103",
"*  c #020202",
"=  c #030302",
"-  c gray1",
";  c #040300",
":  c #040400",
">  c #050500",
",  c #060600",
"<  c #070700",
"1  c #060603",
"2  c #070703",
"3  c #020204",
"4  c #040404",
"5  c #050504",
"6  c gray2",
"7  c #070707",
"8  c #090900",
"9  c #0A0A00",
"0  c #0B0A00",
"q  c #0B0B00",
"w  c #090902",
"e  c #0A0A03",
"r  c #080804",
"t  c #090905",
"y  c #07070C",
"u  c #09090A",
"i  c #0C0C0C",
"p  c #0E0E0E",
"a  c #100F00",
"s  c #111000",
"d  c #111100",
"f  c #131300",
"g  c #181700",
"h  c #191800",
"j  c #191801",
"k  c #1A1900",
"l  c #1D1C00",
"z  c #101010",
"x  c #111111",
"c  c #151515",
"v  c #191919",
"b  c #1B1B1B",
"n  c #1D1D1D",
"m  c gray12",
"M  c #201E00",
"N  c #222000",
"B  c #232100",
"V  c #232200",
"C  c #242200",
"Z  c #252300",
"A  c #252400",
"S  c #292700",
"D  c #2A2A00",
"F  c #2E2D00",
"G  c #302E00",
"H  c #312F00",
"J  c #313000",
"K  c #343200",
"L  c #393700",
"P  c #3E3B00",
"I  c #3F3D00",
"U  c #222222",
"Y  c gray14",
"T  c #282828",
"R  c #2A2A2A",
"E  c gray17",
"W  c #2C2C2C",
"Q  c gray18",
"!  c #313131",
"~  c #323232",
"^  c #333337",
"/  c #343434",
"(  c gray23",
")  c #444100",
"_  c #484600",
"`  c #4D4A00",
"'  c #4E4F00",
"]  c #575400",
"[  c #595600",
"{  c #5A5700",
"}  c #605C00",
"|  c #625D00",
" . c #625E00",
".. c #635E00",
"X. c #625F00",
"o. c #635F00",
"O. c #635F03",
"+. c #656100",
"@. c #666200",
"#. c #686400",
"$. c #6B6700",
"%. c #6F6B00",
"&. c #726E00",
"*. c #7B7700",
"=. c #7D7800",
"-. c #7E7900",
";. c gray27",
":. c #484848",
">. c #4E4E4E",
",. c #50504F",
"<. c #505050",
"1. c #555555",
"2. c #565656",
"3. c gray34",
"4. c gray36",
"5. c #606060",
"6. c #626262",
"7. c #626265",
"8. c gray42",
"9. c #6F6F6F",
"0. c gray47",
"q. c #7B7B7B",
"w. c #807D00",
"e. c #827D00",
"r. c #8B8500",
"t. c #908900",
"y. c #938B00",
"u. c #918A03",
"i. c #938C00",
"p. c #938D00",
"a. c #928F00",
"s. c #948D00",
"d. c #958E00",
"f. c #999300",
"g. c #A19A00",
"h. c #AAA300",
"j. c #AEA600",
"k. c #B2B100",
"l. c #B7B100",
"z. c #BDBB00",
"x. c #C0B800",
"c. c #C3BB00",
"v. c #CCC200",
"b. c #CCC300",
"n. c #C8C700",
"m. c #CFC800",
"M. c #D0C900",
"N. c #D6D300",
"B. c #DFD500",
"V. c #E1D700",
"C. c #E3D900",
"Z. c #EFE300",
"A. c #EFE400",
"S. c #F3E700",
"D. c #F7EB00",
"F. c #F8EC00",
"G. c #F8EE00",
"H. c #FBF100",
"J. c #FEF000",
"K. c #FEF200",
"L. c #FFF500",
"P. c #FCF700",
"I. c #FFF600",
"U. c #FFF901",
"Y. c #FFFA00",
"T. c #FFFB00",
"R. c #FFFE00",
"E. c yellow",
"W. c #808080",
"Q. c #838383",
"!. c #848484",
"~. c gray52",
"^. c #888888",
"/. c #898989",
"(. c #909090",
"). c gray57",
"_. c gray58",
"`. c gray59",
"'. c #989898",
"]. c #9A9A9A",
"[. c #9F9F9F",
"{. c gray63",
"}. c #A2A2A1",
"|. c #A5A5A5",
" X c #AAAAAA",
".X c gray68",
"XX c #AEAEAE",
"oX c gray69",
"OX c #B1B1B1",
"+X c #B4B4B4",
"@X c #B6B6B6",
"#X c gray",
"$X c #C1C1C1",
"%X c gray76",
"&X c #C6C6C6",
"*X c #D0D0CF",
"=X c gray82",
"-X c gray83",
";X c gray84",
":X c #D7D7D7",
">X c gray85",
",X c gainsboro",
"<X c gray87",
"1X c #E0E0DF",
"2X c #E1E1E1",
"3X c #E6E6E6",
"4X c gray91",
"5X c #EAEAE9",
"6X c #EAEAEA",
"7X c #ECECEC",
"8X c #EFEFEF",
"9X c #F1F1F1",
"0X c #F3F3F3",
"qX c #F4F4F4",
"wX c #F6F6F6",
"eX c gray97",
"rX c gray98",
"tX c #FBFBFB",
"yX c gray99",
"uX c #FDFDFD",
"iX c #FDFDFE",
"pX c #FEFEFE",
"aX c gray100",
"sX c None",
/* pixels */
"sXsXsXsXsXsXsXsXsXsXsXsXsXsXsXsXsXsXsXsXsXsXsXsXsXsXsXsXsXsXsXsX",
"sXsXsXsXsXsXsXsXsXsXsXsXsXsXsXsXsXsXsXsXsXsXsXsXsXsXsXsXsXsXsXsX",
"aXaXaXaXaXaXaXaXtXaXaX9X%X].!.Q.).OX<XaXaXaXrXaXaXaXaXaXaXaXaXaX",
"aXaXaXaXaXaXrXaXaX%X2.z               / `.9XaXtXaXaXaXaXaXaXaXaX",
"aXaXaXaXaXrXaX2X>.        = 4 4 4         m XXaXrXaXaXrXaXaXaXaX",
"aXaXaXaXrXaX@Xz   4 7                 8 2     8.rXaXaXaXaXaXaXaX",
"aXtXaXrXaX X      q _   =             I k   4   2.aXaXaXaXaXaXaX",
"aXaXaXaX&X7   =   k a.            =   e.L   = 4   8.aXrXaXaXaXaX",
"aXaXaX9XQ         G m.                l.{   =   4   XXaXaXaXaXaX",
"aXrXaXQ.  4   =   ' H.f               C.w.  =       R eXaXaXtXaX",
"aXaX8Xb       =   &.E.G   =         f P.g.  =     4   }.aXrXaXaX",
"rXaX|.  =     =   f.E.]   =     ;   J E.c.        4   ;.aXrXaXaX",
"rXaX4.        =   x.E.e.  ;     =   ] E.V.8           z 3XaXaXaX",
"aXaXQ   4       8 V.E.h.        =   e.E.F.A             #XaXrXaX",
"aX9Xc           D P.Y.N.            k.E.E.'   =         [.aXrXaX",
"aX3Xi           f j.Y.-.            | H.b.A         4   ).aXrXaX",
"aX8Xz         =   | E.C   =     =   < F.d.  ;       4   ].aXrXaX",
"aXrXU         =   o.E.C   =         < F.d.          =   OXaXrXaX",
"tXaX:.  4     =   o.E.P _ %.    #.S l D.d.  =           ;XaXaXaX",
"rXaX/.  =     =   @.H.z.E.E.K *.E.E.n.Z.d.; =         Q aXaXaXaX",
"tXaX;X4       =   @.P.r.x.M.f G b.t.%.S.d.  =         q.aXrXaXaX",
"aXtXaX2.  =   =   o.E.M = A     f   = F.d.  =       i ,XaXrXaXaX",
"aXaXaX=X7     ;   | E.C   =         8 F.t.  ;   4   0.aXrXaXaXaX",
"aXaXrXaX/.  4 =   | E.C   =         = F.d.    4   / qXaXaXaXaXaX",
"aXaXaXrXaX4.  7   +.E.V             = F.d.  7   b ,XaXaXaXrXaXaX",
"aXaXaXaXaXaX5.  & | Y.M             < A.u.    m =XaXrXaXaXaXaXaX",
"aXaXrXaXaXtXaX`.u ; k = & 4 &   = = 4 k 8   ,.6XaXaXaXaXaXaXaXaX",
"aXaXaXaXaXaXrXaX1X7.y                   ^ @XaXrXrXaXaXaXaXaXaXaX",
"aXaXaXaXaXaXaXrXaXaX6X{.5.( T U / >.!.*XaXaXrXaXaXaXaXaXaXaXaXaX",
"aXaXaXaXaXaXaXaXaXrXaXaXaXaXaXaXaXaXaXaXaXrXaXaXaXaXaXaXaXaXaXaX",
"sXsXsXsXsXsXsXsXsXsXsXsXsXsXsXsXsXsXsXsXsXsXsXsXsXsXsXsXsXsXsXsX",
"sXsXsXsXsXsXsXsXsXsXsXsXsXsXsXsXsXsXsXsXsXsXsXsXsXsXsXsXsXsXsXsX"
};
