/* XPM */
static char *eeb4e7e912de48a7d3a2bf4b95aefbef[] = {
/* columns rows colors chars-per-pixel */
"128 128 88 1 ",
"  c #000000",
". c #0C0B00",
"X c #0B0B0B",
"o c #141400",
"O c #1C1C00",
"+ c #131313",
"@ c #1B1B1B",
"# c #201F00",
"$ c #242300",
"% c #282700",
"& c #2B2A00",
"* c #302F00",
"= c #333200",
"- c #3C3A00",
"; c #242424",
": c #2C2C2C",
"> c #343434",
", c #3B3B3B",
"< c #413F00",
"1 c #434100",
"2 c #494700",
"3 c #4E4C00",
"4 c #555300",
"5 c #595600",
"6 c #5D5A00",
"7 c #646100",
"8 c #686400",
"9 c #6D6800",
"0 c #716D00",
"q c #767100",
"w c #7B7600",
"e c #7E7800",
"r c #444444",
"t c #4B4B4B",
"y c #555555",
"u c #5B5B5B",
"i c #636363",
"p c #6A6A6A",
"a c #737373",
"s c #7B7B7B",
"d c #817C00",
"f c #858100",
"g c #898500",
"h c #8D8900",
"j c #918D00",
"k c #969200",
"l c #9F9A00",
"z c #A19D00",
"x c #A6A100",
"c c #A9A400",
"v c #B4AE00",
"b c #B7B100",
"n c #BBB600",
"m c #BEBA00",
"M c #C4BD00",
"N c #C7C000",
"B c #CAC300",
"V c #CFC800",
"C c #D3CD00",
"Z c #D8CF00",
"A c #D6D100",
"S c #DAD300",
"D c #DFD800",
"F c #E3DC00",
"G c #EBE100",
"H c #F1E600",
"J c #F4EA00",
"K c #FBEE00",
"L c #F7F700",
"P c #FEF200",
"I c #FFFD00",
"U c #838383",
"Y c #8A8A8A",
"T c #939393",
"R c #9D9D9D",
"E c #A5A5A5",
"W c #ACACAC",
"Q c #B4B4B4",
"! c #BCBCBC",
"~ c #C2C2C2",
"^ c #CDCDCD",
"/ c #D3D3D3",
"( c #DDDDDD",
") c #E4E4E4",
"_ c #EDEDED",
"` c #F5F5F5",
"' c #FFFFFF",
"] c None",
/* pixels */
"]]]]]]]]]]]]]]]]]]]]]]]]]]]]]]]]]]]]]]]]]]]]]]]]]]]]]]]]]]]]]]]]]]]]]]]]]]]]]]]]]]]]]]]]]]]]]]]]]]]]]]]]]]]]]]]]]]]]]]]]]]]]]]]]",
"]]]]]]]]]]]]]]]]]]]]]]]]]]]]]]]]]]]]]]]]]]]]]]]]]]]]]]]]]]]]]]]]]]]]]]]]]]]]]]]]]]]]]]]]]]]]]]]]]]]]]]]]]]]]]]]]]]]]]]]]]]]]]]]]",
"]]]]]]]]]]]]]]]]]]]]]]]]]]]]]]]]]]]]]]]]]]]]]]]]]]]]]]]]]]]]]]]]]]]]]]]]]]]]]]]]]]]]]]]]]]]]]]]]]]]]]]]]]]]]]]]]]]]]]]]]]]]]]]]]",
"]]]]]]]]]]]]]]]]]]]]]]]]]]]]]]]]]]]]]]]]]]]]]]]]]]]]]]]]]]]]]]]]]]]]]]]]]]]]]]]]]]]]]]]]]]]]]]]]]]]]]]]]]]]]]]]]]]]]]]]]]]]]]]]]",
"]]]]]]]]]]]]]]]]]]]]]]]]]]]]]]]]]]]]]]]]]]]]]]]]]]]]]]]]]]]]]]]]]]]]]]]]]]]]]]]]]]]]]]]]]]]]]]]]]]]]]]]]]]]]]]]]]]]]]]]]]]]]]]]]",
"]]]]]]]]]]]]]]]]]]]]]]]]]]]]]]]]]]]]]]]]]]]]]]]]]]]]]]]]]]]]]]]]]]]]]]]]]]]]]]]]]]]]]]]]]]]]]]]]]]]]]]]]]]]]]]]]]]]]]]]]]]]]]]]]",
"]]]]]]]]]]]]]]]]]]]]]]]]]]]]]]]]]]]]]]]]]]]]]]]]]]]]]]]]]]]]]]]]]]]]]]]]]]]]]]]]]]]]]]]]]]]]]]]]]]]]]]]]]]]]]]]]]]]]]]]]]]]]]]]]",
"''''''''''''''''''''''''''''''''''''''''''''''''''''''''''''''''''''''''''''''''''''''''''''''''''''''''''''''''''''''''''''''''",
"'''''''''''''''''''''''''''''''''''''''''''''''''''''`''''''''''''''`'''''''''''''''''''''''''''''''''''''''''''''''''''''''''''",
"''''''''''''''''''''''''''''''''''''''''''''''''''''''''`_)(((()'`''''''''''''''''''''''''''''''''''''''''''''''''''''''''''''''",
"'''''''''''''''''''''''''''''''''''''''''''``'''''(!Tay>;;X XXX+;;rusE^_''''''''''''''''''''''''''''''''''''''''''''''''''''''''",
"''''''''''''''''''''''''''''''''''''''''''''''(Tu>                     @,aQ_'''``'''''''''''''''''''''''''''''''''''''''''''''''",
"'''''''''''''''''''''''''''''''''''''''''''^U>X      X                     +tE_'''''''''''''''''''''''''''''''''''''''''''''''''",
"''''''''''''''''''''''''''''''''''''`''')Y>                              X    XyQ''''`''''''''''''''''''''''''''''''''''''''''''",
"''''''''''''''''''''''''''''''''''''''^p+                                        :T_''''''''''''''''''''''''''''''''''''''''''''",
"'''''''''''''''''''''''''''''''''`''^y                                             @U_''''''''''''''''''''''''''''''''''''''''''",
"''''''''''''''''''''''''''''''''''(y                                                 @T'''''''''''''''''''''''''''''''''''''''''",
"''''''''''''''''''''''''''''''`'`UX                                                    :!''`''`'''''''''''''''''''''''''''''''''",
"''''''''''''''''''''''''''''`''!>                                                        p_'''''''''''''''''''''''''''''''''''''",
"''''''''''''''''''''''''''''''a                                                           @Q''''''''''''''''''''''''''''''''''''",
"''''''''''''''''''''''''''''(,                                                              a'''''''''''''''''''''''''''''''''''",
"'''''''''''''''''''''''''`'QX                                                              X r)'''''''''''''''''''''''''''''''''",
"''''''''''''''''''''''''''Y              O                                    .o              @^''''''''''''''''''''''''''''''''",
"'''''''''''''''''''''''''p               6                                    O3               +W'`'''''''''''''''''''''''''''''",
"''''''''''''''''''''''''y               .l.                                   -h                 W''''''''''''''''''''''''''''''",
"'''''''''''''''''''''''y                ODo                                 . 6m                  W'''''''''''''''''''''''''''''",
"'''''''''''''''''''''`u                 =I=                                   eG                   W''''''''''''''''''''''''''''",
"'''''''''''''''''''''p                  4I4                                   lPO                  X!'`'''''''''''''''''''''''''",
"''''''''''''''''''''Y                   eIw                                   MI-                   +^''''''''''''''''''''''''''",
"'''''''''''''''''`'E                  . cIx                                  .FI7                    :_'''''''''''''''''''''''''",
"''''''''''''''''''/+                    VIB                                  &KIg                     y'''''''''''''''''''''''''",
"'''''''''''''''''`>                    oGPGo                                 3IIv                      U''''''''''''''''''''''''",
"'''''''''''''''''a                   . =PPP=                                 qIPZ                      X~'''''''''''''''''''''''",
"''''''''''''''''Q                      6IKI6                                 lIKK$                      :'''''''''''''''''''''''",
"'''''''''''''''_:                      fIJIe                                 NIKI-                       s''''''''''''''''''''''",
"'''''''''''''''s                       cIKIc                                .FLKI7                        ^'''''''''''''''''''''",
"''''''''''''''^X                       VIKIV                                &PPKIh                        y'''''''''''''''''''''",
"''''''''''''`'t                       oHPPPGO                               3IPKIb                         W'`''''''''''''''''''",
"'''''''''''''~                        -IPPPP=                             . eIKKIZ.                        ,''''''''''''''''''''",
"'''''''''''''y                        7IKPPI5                               xIKPPJO                         W'''''''''''''''''''",
"''''''''''`'~                         gIKPKId                               BIKPKI-                         ,'''''''''''''''''''",
"''''''''''''u                         vIKPKIc                              oGPPPKI7                          !''''''''''''''''''",
"'''''''''''(X                        .ZIKPKIV                              =PPPPKIh                          y''''''''''''''''''",
"''''''''`''U                         OJPPPPPGo                             5IPPPKIb                          X('''''''''''''''''",
"''''''''''':                         -IKPPPPI=                             eIKPPPIS                           Y'''''''''''''''''",
"''''''''''~                          7IKPPPKI5                             cIKPPPPJ$                          ,'''''''''''''''''",
"''''''''`'s                          hIKPPPKIf                             VIKPPPKI- .                         /''''''''''''''''",
"'''''''''':                          vIKPPPPIc                            oGPPPPPKI7                           Y'`''''''''''''''",
"'''''''''^                          .ZIKPPPPIV                            *PPPPPPKIj                           r''''''''''''''''",
"'''''''''Y                          OJPKPPPPPGo                           5IKPPPPKIb                           +('''''''''''''''",
"'''''''''y X                        -IPPPPPPPP=                           fIPPPPPKIZ.                           Q'''''''''''''''",
"''''''''`;                          7IKPPPPPPI5                           cIKPPPPPPJO                           s'`'''''''''''''",
"''''''`'/                           hIKPPPPPPId                           BIKPPPPPKI-                         X t'''''''''''''''",
"''''''''Q                           vIKPPPPPKIc                          oGIPPPPPPKI8 .                         ;'''''''''''''''",
"''''''''U                           ZIPPPPPPKIV                          =PPPPPPPPKIj                            (''''''''''''''",
"''''''`'p                          OJPPPPPPPPPGo                         5IPPPPPPPPIb                            ~''''''''''''''",
"''''''''r                        . -IKKPPPPPPPP=                         eIPPPPPPPPIZ                            E''''''''''''''",
"'''''''';                          7IKPPPPPPPKI6                         xIKPPPPPPPPJ$                           s''''''''''''''",
"'''''''_@                          jIKPPPPPPPKIf .                       VIKPPPPPPPPI<                           s'`''''''''''''",
"'''''''_@                          vIKPPPPPPPKIx                        oGPKPPPPPPPKI7                           p''''''''''''''",
"'''''''/                           DIIIPPPPPPIIC                        =IIIPPPPPPIPIk                         X r''''''''''''''",
"'''''''/                          oMVNGPPPPPGNVn.                       <ZMVKPPPPPSMAj                           t''''''''''''''",
"'''''`'/                              hIPPKIe                               BIPPKI<                              r''''''''''''''",
"'''''''^X                             gIKPKIe .                             BIKPKI-                              r''''''''''''''",
"'''''''^                              gIKPKId                               BIKKKI-                            X r''''''''''''''",
"'''''''(X                             gIKPKId                               BIKPKI-                              u''''''''''''''",
"'''''''`@                           . gIKPKId                               BIKPKI-                              s'`''''''''''''",
"'''''''_@                             gIKPKIw .                             BIKPKI-                              a''''''''''''''",
"''''''''>                             hIKPKIe                               BIKPPI-                            X T''''''''''''''",
"''''''`'u                           . gIKPKIe                               MIKPPP-                              !''''''''''''''",
"''''''''s                             fIKPKIe .                             BIKPPI<                              ^''''''''''''''",
"''''''''R                             gIKPKId       o                       BIKPKI-                             +_''''''''''''''",
"''''''''~                             gIKPKIe       zO            o*        VIKPKI-                             >'''''''''''''''",
"''''''''_+                            gIKPJIe       Av            Nq .      BIKPKI-                             p'`'''''''''''''",
"''''''''',                            gIKPKIe       NIq         .vI6        BIKPKI-                             R'''''''''''''''",
"'''''''''p                            gIKPKI01DMBBBVKPI1       obIPv9wqqwq0.MIKPKI-                             ^'''''''''''''''",
"'''''''`'W                          . gIKPKI85ILIIIIPKIFO     OAIPPLIIIIIILOMIKKKI-                            ;`'''''''''''''''",
"''''''''')+                           gIKPKI95IKKKKKPPKIn    OZIKPPPKKKKKPJOMIKPKI-                            i''''''''''''''''",
"''''''''''y                           gIKPKI95IKKPPPPPPKIh  OFIKPPPPPPPPPPJOMIKPPI-                            W'`''''''''''''''",
"''''''''''R                           gIKPKI84IKPPPPPKPKIj  oMIKPPPPPPPPPPJOMIKPPI-                           @_''''''''''''''''",
"'''''''''')X                        . gIPPKI94IKKKKKPPKIm    .cIKPPPPPPPPPKOmIKPPI-                           i'''''''''''''''''",
"'''''''''''y                          gIKPKI95ILIIIIPKIFO      kIKPPPKKKKPHOMIKPKI-                           Q'''''''''''''''''",
"'''''''''''Q                          gIKPKI01DBVVVZKPI2        kIIdO*%%%&& NIPPKI-                          :`'''''''''''''''''",
"'''''''''''`>                         gIKPJIe       MIw          kI6        NIKPKI-                          U'`''''''''''''''''",
"''''''''''''Y                         gIKPKIe       Cn            g9        BIKPKI-                         +)''''''''''''''''''",
"''''''''''''_;                        gIKPKIe       x#             o        BIKPPI-                         a'''''''''''''''''''",
"'''''''''''''Y                        hIKPKId .     o                       BIKPKI-                        +)'''''''''''''''''''",
"'''''''''''''_;                       hIKPKIe                               MIKPKI-                        s'`''''''''''''''''''",
"''''''''''''`'T                       gIKPKIe                               BIKPKI-                       @)''''''''''''''''''''",
"''''''''''''''',                      gIKPKIe                               MIKPKI-                       Y'''''''''''''''''''''",
"'''''''''''''''!                      gIKPKIe .                             BIKPKI-                      ,`'''''''''''''''''''''",
"''''''''''''''''p                   . gIKPJIe                               BIKPKI-                      ~''''''''''''''''''''''",
"''''''''''''''`'_;                  . gIKPKIe                               BIKPKI-                     s'''''''''''''''''''''''",
"'''''''''''''''''!                    gIKPKIe                               BIKPKI-                    ,`'''''''''''''''''''''''",
"''''''''''''''''''U                   gIKPKId .                             MIKPKI-                   +/''''''''''''''''''''''''",
"'''''''''''''''''''y                  gIKPKIe                               BIKPKI-                   W'''''''''''''''''''''''''",
"'''''''''''''''''''_:                 gIPPKIe                               NIKPKI-                  U''''''''''''''''''''''''''",
"''''''''''''''''''''(@                gIKPKIe                               NIPPKI-                 p'''''''''''''''''''''''''''",
"'''''''''''''''''''''~X               hIKPKIe .                             NIKPPI-                r`'''''''''''''''''''''''''''",
"''''''''''''''''''''''!               hIKPKIe                               NIKPKI<               t''`''''''''''''''''''''''''''",
"'''''''''''''''''''''''!X             gIKPKIe                               NIKPKI-              r`'''''''''''''''''''''''''''''",
"''''''''''''''''''''''''!X            gIKPKIe                               NIKPKI-             t`''''''''''''''''''''''''''''''",
"'''''''''''''''''''''''`'^; X         gIJPJIe                               NIKKKI-            p''''''''''''''''''''''''''''''''",
"'''''''''''''''''''''''''')r        . hILILIe .                             BIIIPI-           U'''''''''''''''''''''''''''''''''",
"'''''''''''''''''''''''''''`p         $<---1O                               *<-<--o       X +Q''''''''''''''''''''''''''''''''''",
"'''''''''''''''''''''''''''''E+                                                            r)'`'''''''''''''''''''''''''''''''''",
"'''''''''''''''''''''''''''''')r                                                         XU'''''''''''''''''''''''''''''''''''''",
"''''''''''''''''''''''''''''''''E@                                                      r^''''''''''''''''''''''''''''''''''''''",
"'''''''''''''''''''''''''''''''`')p                                                   ;E''`'''''''''''''''''''''''''''''''''''''",
"''''''''''''''''''''''''''''''''`''^yX  .                                       X   ;Y_'''''''''''''''''''''''''''''''''''''''''",
"'''''''''''''''''''''''''''''''''''''^u                                           @Y_'''''''''''''''''''''''''''''''''''''''''''",
"'''''''''''''''''''''''''''''''''''''''/s;                                     X,R_''`''''''''''''''''''''''''''''''''''''''''''",
"'''''''''''''''''''''''''''''''''''''''''_Wu+                                >s^'''`''''''''''''''''''''''''''''''''''''''''''''",
"''''''''''''''''''''''''''''''''''''''''`'''_Ep;X           X            +,s^'''''''''''''''''''''''''''''''''''''''''''''''''''",
"'''''''''''''''''''''''''''''''''''''''''''''''`/Ear;X              X:yU!)''''''''''''''''''''''''''''''''''''''''''''''''''''''",
"''''''''''''''''''''''''''''''''''''''''''''''''''''`)^ERRaapapaRR!/_'''''''`'''''''''''''''''''''''''''''''''''''''''''''''''''",
"''''''''''''''''''''''''''''''''''''''''''''''''''''''''''''''''''''''`'''''''''''''''''''''''''''''''''''''''''''''''''''''''''",
"'''''''''''''''''''''''''''''''''''''''''''''''''''''''`'''`''`''''`''''''''''''''''''''''''''''''''''''''''''''''''''''''''''''",
"''''''''''''''''''''''''''''''''''''''''''''''''''''''''''''''''''''''''''''''''''''''''''''''''''''''''''''''''''''''''''''''''",
"''''''''''''''''''''''''''''''''''''''''''''''''''''''''''''''''''''''''''''''''''''''''''''''''''''''''''''''''''''''''''''''''",
"']]]]]]]]]]]]]]]]]]]]]]]]]]]]]]]]]]]]]]]]]]]]]]]]]]]]]]]]]]]]]]]]]]]]]]]]]]]]]]]]]]]]]]]]]]]]]]]]]]]]]]]]]]]]]]]]]]]]]]]]]]]]]]]",
"]]]]]]]]]]]]]]]]]]]]]]]]]]]]]]]]]]]]]]]]]]]]]]]]]]]]]]]]]]]]]]]]]]]]]]]]]]]]]]]]]]]]]]]]]]]]]]]]]]]]]]]]]]]]]]]]]]]]]]]]]]]]]]]]",
"]]]]]]]]]]]]]]]]]]]]]]]]]]]]]]]]]]]]]]]]]]]]]]]]]]]]]]]]]]]]]]]]]]]]]]]]]]]]]]]]]]]]]]]]]]]]]]]]]]]]]]]]]]]]]]]]]]]]]]]]]]]]]]]]",
"]]]]]]]]]]]]]]]]]]]]]]]]]]]]]]]]]]]]]]]]]]]]]]]]]]]]]]]]]]]]]]]]]]]]]]]]]]]]]]]]]]]]]]]]]]]]]]]]]]]]]]]]]]]]]]]]]]]]]]]]]]]]]]]]",
"]]]]]]]]]]]]]]]]]]]]]]]]]]]]]]]]]]]]]]]]]]]]]]]]]]]]]]]]]]]]]]]]]]]]]]]]]]]]]]]]]]]]]]]]]]]]]]]]]]]]]]]]]]]]]]]]]]]]]]]]]]]]]]]]",
"]]]]]]]]]]]]]]]]]]]]]]]]]]]]]]]]]]]]]]]]]]]]]]]]]]]]]]]]]]]]]]]]]]]]]]]]]]]]]]]]]]]]]]]]]]]]]]]]]]]]]]]]]]]]]]]]]]]]]]]]]]]]]]]]",
"]]]]]]]]]]]]]]]]]]]]]]]]]]]]]]]]]]]]]]]]]]]]]]]]]]]]]]]]]]]]]]]]]]]]]]]]]]]]]]]]]]]]]]]]]]]]]]]]]]]]]]]]]]]]]]]]]]]]]]]]]]]]]]]]",
"]]]]]]]]]]]]]]]]]]]]]]]]]]]]]]]]]]]]]]]]]]]]]]]]]]]]]]]]]]]]]]]]]]]]]]]]]]]]]]]]]]]]]]]]]]]]]]]]]]]]]]]]]]]]]]]]]]]]]]]]]]]]]]]]"
};
