/* XPM */
static char *_96e1a86535d4d4fae6e355fe15451c1[] = {
/* columns rows colors chars-per-pixel */
"64 64 87 1 ",
"  c #000000",
". c #0B0B00",
"X c #0A0A0A",
"o c #100F00",
"O c #111100",
"+ c #1C1B00",
"@ c gray8",
"# c #1B1B1B",
"$ c #201F00",
"% c #242300",
"& c #282700",
"* c #2C2B00",
"= c #333200",
"- c #393700",
"; c #3D3B00",
": c #242424",
"> c #2A2A2A",
", c #333333",
"< c #3C3C3C",
"1 c #413E00",
"2 c #454300",
"3 c #4C4900",
"4 c #524F00",
"5 c #545200",
"6 c #595500",
"7 c #5E5C00",
"8 c #615E00",
"9 c #676500",
"0 c #6A6600",
"q c #6D6900",
"w c #726E00",
"e c #767200",
"r c #7B7700",
"t c #7D7900",
"y c #454545",
"u c #4C4C4C",
"i c gray33",
"p c #5D5D5D",
"a c #646464",
"s c #6B6B6B",
"d c #747474",
"f c #7B7B7B",
"g c #807C00",
"h c #898500",
"j c #8E8B00",
"k c #989200",
"l c #9F9900",
"z c #A39D00",
"x c #A7A100",
"c c #ABA600",
"v c #ADA800",
"b c #B0A800",
"n c #BFB700",
"m c #BEBC00",
"M c #C2B900",
"N c #C8BF00",
"B c #CBC200",
"V c #CFCB00",
"C c #D4CB00",
"Z c #D8CE00",
"A c #DCD200",
"S c #E5DB00",
"D c #E9DF00",
"F c #EDE200",
"G c #F1E600",
"H c #F6EA00",
"J c #FAEE00",
"K c #F7F200",
"L c #FEF300",
"P c #FFFC00",
"I c #828282",
"U c #8B8B8B",
"Y c #939393",
"T c #9A9A9A",
"R c #A3A3A3",
"E c #ACACAC",
"W c #B4B4B4",
"Q c gray",
"! c #C3C3C3",
"~ c gray80",
"^ c #D4D4D4",
"/ c #DCDCDC",
"( c gray89",
") c #EBEBEB",
"_ c #F2F2F2",
"` c #FFFFFF",
"' c None",
/* pixels */
"''''''''''''''''''''''''''''''''''''''''''''''''''''''''''''''''",
"''''''''''''''''''''''''''''''''''''''''''''''''''''''''''''''''",
"''''''''''''''''''''''''''''''''''''''''''''''''''''''''''''''''",
"''''''''''''''''''''''''''''''''''''''''''''''''''''''''''''''''",
"````````````````````````````_)))_```````````````````````````````",
"```````````````````````^Tsy:@ XX#:udE/``````````````````````````",
"````````````````````^I,              X<Y)``_````````````````````",
"``````````````````!i                    Xa/`````````````````````",
"``````````````_`/i                        Xs)```````````````````",
"```````````````UX                           #W``````````````````",
"`````````````)u                               s`````````````````",
"````````````^:      +.                 +       y)```````````````",
"```````````~@       7$                 9o       ,)``````````````",
"``````````^@        z-                 v+        ,)`````````````",
"`````````(:         C6                .D=         u`````````````",
"`````````u X       .Hr                +P5          d````````````",
"````````U          &Pz                2Pr           W```````````",
"```````^X          3PM                qPz           :_``````````",
"```````u           ePS.             . kPN          X f``````````",
"``````Q            xPJ&               MPDo           @(`````````",
"``````u            BPP3              .SLL*            f`````````",
"`````~            OFLPe              &LJP4            :_````````",
"`````f            *LJPl              3PJPt .           E````````",
"`````,            4PJPN              ePHPx             p````````",
"````~             tPJLD.             lPHPB             #)```````",
"````T             xPJLL&             NPJLFO             !```````",
"``_`a             BPLJP3            .SPLLL*             T```````",
"````y            oDPLJPe            &LLJJP5             s```````",
"````:            *LLLJPl            3PLLJPt             u```````",
"```)@            5PJLJPB          . ePJLJPc             <```````",
"```(X            qFGLJFN.           hFHLLFb             :```````",
"```/               NPP2              .APJ*              >```````",
"```(@              nPL1               APJ%              ,```````",
"```_@              MPP1              .APJ%              <```````",
"````>              MPP1               APJ&              i```````",
"````y              MPP1 ..           .ALJ%            X d```````",
"````d              MPP1  .t     .4    APJ%              R```````",
"``_`R              MPL6700Ke    xV=;1&ZPJ%              ^```````",
"````/X             MPJtKPPLJ; .cPJPPPjBPJ%             >````````",
"`````<             MPJeGJHJPm qPHLLJPjBPJ%             s`_``````",
"`````U             MPJrPPPLK1  jPHHGPhBPJ%             !````````",
"`````(@            MPL67qqKe    kBO++OZPJ%            ,`````````",
"``````s            MPL;  og     .-   .ALJ%            Y`````````",
"``````^X           MPP2 . .           APJ%           >_`````````",
"`````_`d           MPP1               APJ%           R``````````",
"```````)#          MPL1               APJ%          y```````````",
"````````W          MPL1               APJ%         @^```````````",
"`````````d         MPP1              .APJ%         R````````````",
"``````````u        MPL1              .ZPJ&        f`````````````",
"``````````_<       MPP1               APJ&       a``````````````",
"```````````)<      MPP1               APJ%      p```````````````",
"````````````_p     nPL1               ALH%     f````````````````",
"``````````````I    +&&.               $&% X  XE`````````````````",
"```````````````!,                           u/``````````````````",
"````````````````_Y#                   X   >E````````````````````",
"``````````````````_U>         X         ,R```_``````````````````",
"````````````````````_Qs:             ,f^````````````````````````",
"```````````````````````_/EIpu<<<usUW(```````````````````````````",
"````````````````````````````````````````````````````````````````",
"``````````````````````````_````````_````````````````````````````",
"''''''''''''''''''''''''''''''''''''''''''''''''''''''''''''''''",
"''''''''''''''''''''''''''''''''''''''''''''''''''''''''''''''''",
"''''''''''''''''''''''''''''''''''''''''''''''''''''''''''''''''",
"''''''''''''''''''''''''''''''''''''''''''''''''''''''''''''''''"
};
