/* XPM */
static char *_1333badeecd45e6e64ac52e84a2ee3f[] = {
/* columns rows colors chars-per-pixel */
"16 16 119 2 ",
"   c black",
".  c #010100",
"X  c #000001",
"o  c #020200",
"O  c #030200",
"+  c #030300",
"@  c #000002",
"#  c #000003",
"$  c #040401",
"%  c #060600",
"&  c #070700",
"*  c #050502",
"=  c #000004",
"-  c #000005",
";  c #070706",
":  c #0B0B03",
">  c #0C0B01",
",  c gray3",
"<  c #0B0B09",
"1  c #0F0F0C",
"2  c #161501",
"3  c #121105",
"4  c #1F1D02",
"5  c #090A18",
"6  c #131313",
"7  c #141413",
"8  c #161616",
"9  c gray10",
"0  c #2C2A00",
"q  c #2E2C03",
"w  c #343203",
"e  c #373602",
"r  c #3D3900",
"t  c #3D3B00",
"y  c #2B2B29",
"u  c gray18",
"i  c #3C3C3C",
"p  c gray24",
"a  c #3F3F3F",
"s  c #403D00",
"d  c #434000",
"f  c #474400",
"g  c #464401",
"h  c #4C4A05",
"j  c #514D00",
"k  c #534E00",
"l  c #545000",
"z  c #565300",
"x  c #575300",
"c  c #5B5600",
"v  c #5E5B04",
"b  c #666100",
"n  c #666400",
"m  c #6B6700",
"M  c #737000",
"N  c #7C7800",
"B  c #45443D",
"V  c gray30",
"C  c gray33",
"Z  c #5C5C56",
"A  c #5A5A5A",
"S  c #6F6F6F",
"D  c #727271",
"F  c #807A01",
"G  c #837D00",
"H  c #857F00",
"J  c #858100",
"K  c #8D8601",
"L  c #948D00",
"P  c #958F00",
"I  c #959000",
"U  c #9A9200",
"Y  c #9A9500",
"T  c #A09800",
"R  c #A19900",
"E  c #A59D00",
"W  c #ABA500",
"Q  c #B6AE00",
"!  c #C0B700",
"~  c #CAC200",
"^  c #CBC200",
"/  c #CDC300",
"(  c #DDD200",
")  c #DCD300",
"_  c #848484",
"`  c #868687",
"'  c #888889",
"]  c #8E8E8E",
"[  c #959595",
"{  c #999998",
"}  c #9D9D9C",
"|  c #A1A1A0",
" . c #AAAAAA",
".. c #AFAFAF",
"X. c #B1B1AE",
"o. c #C8C8C8",
"O. c #CBCBCC",
"+. c #CDCDCD",
"@. c #CCCCCF",
"#. c #D4D4D2",
"$. c #D5D5D5",
"%. c #D8D8D8",
"&. c #D8D8DC",
"*. c gray87",
"=. c #E1E1E1",
"-. c #E2E2E3",
";. c gray92",
":. c #ECECEC",
">. c gray93",
",. c #EFEFEF",
"<. c #F3F3F3",
"1. c #FBFBFB",
"2. c gray99",
"3. c #FDFDFD",
"4. c #FCFCFE",
"5. c #FEFEFE",
"6. c #FFFFFE",
"7. c gray100",
"8. c None",
/* pixels */
"8.8.8.8.8.8.8.8.8.8.8.8.8.8.8.8.",
"7.7.7.7.:.[ C B V _ *.7.7.7.7.7.",
"7.1.7. .7           , ` 7.1.7.7.",
"1.7.}   2 e - $   q 4   D 7.1.7.",
"7.%.<   e M   $   n g -   ..7.1.",
"7.S   - z W   &   Y m     p 7.7.",
"7.u     N (   $   ^ I     ; =.7.",
";.8     G (       / U   $   o.7.",
",.9     g L   &   H c       +.7.",
"7.p     t / T d T ! j     8 :.7.",
"7.]   - s Q b 0 z E z -   A 7.1.",
"7.<.y   h I   &   J v   1 #.7.7.",
"7.7.#.5 r K   :   F j   X.7.1.7.",
"7.1.7.=.Z 3       > B O.7.7.7.7.",
"7.7.2.7.7.&.| ' { @.7.7.7.7.7.7.",
"8.8.8.8.8.8.8.8.8.8.8.8.8.8.8.8."
};
